<?xml version="1.0" encoding="UTF-8" standalone="no"?>
<svg
   xmlns:dc="http://purl.org/dc/elements/1.1/"
   xmlns:cc="http://creativecommons.org/ns#"
   xmlns:rdf="http://www.w3.org/1999/02/22-rdf-syntax-ns#"
   xmlns:svg="http://www.w3.org/2000/svg"
   xmlns="http://www.w3.org/2000/svg"
   xmlns:sodipodi="http://sodipodi.sourceforge.net/DTD/sodipodi-0.dtd"
   xmlns:inkscape="http://www.inkscape.org/namespaces/inkscape"
   width="210mm"
   height="297mm"
   viewBox="0 0 210 297"
   version="1.1"
   id="svg8"
   inkscape:export-filename="C:\Users\Giulia Galzerano\Documents\Ariana\monstros_sa_sullivan.png"
   inkscape:export-xdpi="96"
   inkscape:export-ydpi="96"
   inkscape:version="1.0.2-2 (e86c870879, 2021-01-15)"
   sodipodi:docname="desenhando_minions.svg">
  <defs
     id="defs2">
    <inkscape:path-effect
       effect="spiro"
       id="path-effect1108"
       is_visible="true"
       lpeversion="1" />
    <inkscape:path-effect
       effect="spiro"
       id="path-effect1103"
       is_visible="true"
       lpeversion="1" />
    <inkscape:path-effect
       effect="bspline"
       id="path-effect930"
       is_visible="true"
       lpeversion="1"
       weight="33.333333"
       steps="2"
       helper_size="0"
       apply_no_weight="true"
       apply_with_weight="true"
       only_selected="false" />
    <inkscape:path-effect
       effect="spiro"
       id="path-effect926"
       is_visible="true"
       lpeversion="1" />
    <inkscape:path-effect
       effect="spiro"
       id="path-effect922"
       is_visible="true"
       lpeversion="1" />
    <inkscape:path-effect
       effect="bspline"
       id="path-effect918"
       is_visible="true"
       lpeversion="1"
       weight="33.333333"
       steps="2"
       helper_size="0"
       apply_no_weight="true"
       apply_with_weight="true"
       only_selected="false" />
    <inkscape:path-effect
       effect="spiro"
       id="path-effect195"
       is_visible="true"
       lpeversion="1" />
    <inkscape:path-effect
       effect="spiro"
       id="path-effect191"
       is_visible="true"
       lpeversion="1" />
    <inkscape:path-effect
       effect="spiro"
       id="path-effect187"
       is_visible="true"
       lpeversion="1" />
    <inkscape:path-effect
       effect="spiro"
       id="path-effect183"
       is_visible="true"
       lpeversion="1" />
    <inkscape:path-effect
       effect="spiro"
       id="path-effect179"
       is_visible="true"
       lpeversion="1" />
    <inkscape:path-effect
       effect="spiro"
       id="path-effect175"
       is_visible="true"
       lpeversion="1" />
    <inkscape:path-effect
       effect="spiro"
       id="path-effect171"
       is_visible="true"
       lpeversion="1" />
    <inkscape:path-effect
       effect="spiro"
       id="path-effect167"
       is_visible="true"
       lpeversion="1" />
    <inkscape:path-effect
       effect="spiro"
       id="path-effect159"
       is_visible="true"
       lpeversion="1" />
  </defs>
  <sodipodi:namedview
     id="base"
     pagecolor="#ffffff"
     bordercolor="#666666"
     borderopacity="1.0"
     inkscape:pageopacity="0.0"
     inkscape:pageshadow="2"
     inkscape:zoom="1.07"
     inkscape:cx="51.994878"
     inkscape:cy="238.68576"
     inkscape:document-units="mm"
     inkscape:current-layer="g988"
     inkscape:document-rotation="0"
     showgrid="false"
     inkscape:window-width="1822"
     inkscape:window-height="1051"
     inkscape:window-x="89"
     inkscape:window-y="-9"
     inkscape:window-maximized="1" />
  <metadata
     id="metadata5">
    <rdf:RDF>
      <cc:Work
         rdf:about="">
        <dc:format>image/svg+xml</dc:format>
        <dc:type
           rdf:resource="http://purl.org/dc/dcmitype/StillImage" />
        <dc:title />
      </cc:Work>
    </rdf:RDF>
  </metadata>
  <g
     id="g1007"
     transform="translate(-39.565008,5.6346451)"
     inkscape:label="cabelinho">
    <g
       id="rect906-9"
       transform="rotate(37.924088,68.99326,80.984633)">
      <path
         style="color:#000000;font-style:normal;font-variant:normal;font-weight:normal;font-stretch:normal;font-size:medium;line-height:normal;font-family:sans-serif;font-variant-ligatures:normal;font-variant-position:normal;font-variant-caps:normal;font-variant-numeric:normal;font-variant-alternates:normal;font-variant-east-asian:normal;font-feature-settings:normal;font-variation-settings:normal;text-indent:0;text-align:start;text-decoration:none;text-decoration-line:none;text-decoration-style:solid;text-decoration-color:#000000;letter-spacing:normal;word-spacing:normal;text-transform:none;writing-mode:lr-tb;direction:ltr;text-orientation:mixed;dominant-baseline:auto;baseline-shift:baseline;text-anchor:start;white-space:normal;shape-padding:0;shape-margin:0;inline-size:0;clip-rule:nonzero;display:inline;overflow:visible;visibility:visible;isolation:auto;mix-blend-mode:normal;color-interpolation:sRGB;color-interpolation-filters:linearRGB;solid-color:#000000;solid-opacity:1;vector-effect:none;fill:#000000;fill-opacity:1;fill-rule:evenodd;stroke:none;stroke-width:0.405031;stroke-linecap:round;stroke-linejoin:round;stroke-miterlimit:4;stroke-dasharray:none;stroke-dashoffset:0;stroke-opacity:1;paint-order:stroke fill markers;color-rendering:auto;image-rendering:auto;shape-rendering:auto;text-rendering:auto;enable-background:accumulate;stop-color:#000000;stop-opacity:1"
         d="m 66.065828,8.0044842 c 0,0 13.05003,2.2015588 15.34906,5.1821998 v 0 C 78.056578,12.160889 66.065828,8.0044842 66.065828,8.0044842 Z"
         id="path913-6"
         sodipodi:nodetypes="cccc" />
    </g>
    <g
       id="rect906-9-1"
       transform="rotate(65.682444,82.442025,52.294087)">
      <path
         style="color:#000000;font-style:normal;font-variant:normal;font-weight:normal;font-stretch:normal;font-size:medium;line-height:normal;font-family:sans-serif;font-variant-ligatures:normal;font-variant-position:normal;font-variant-caps:normal;font-variant-numeric:normal;font-variant-alternates:normal;font-variant-east-asian:normal;font-feature-settings:normal;font-variation-settings:normal;text-indent:0;text-align:start;text-decoration:none;text-decoration-line:none;text-decoration-style:solid;text-decoration-color:#000000;letter-spacing:normal;word-spacing:normal;text-transform:none;writing-mode:lr-tb;direction:ltr;text-orientation:mixed;dominant-baseline:auto;baseline-shift:baseline;text-anchor:start;white-space:normal;shape-padding:0;shape-margin:0;inline-size:0;clip-rule:nonzero;display:inline;overflow:visible;visibility:visible;isolation:auto;mix-blend-mode:normal;color-interpolation:sRGB;color-interpolation-filters:linearRGB;solid-color:#000000;solid-opacity:1;vector-effect:none;fill:#000000;fill-opacity:1;fill-rule:evenodd;stroke:none;stroke-width:0.405031;stroke-linecap:round;stroke-linejoin:round;stroke-miterlimit:4;stroke-dasharray:none;stroke-dashoffset:0;stroke-opacity:1;paint-order:stroke fill markers;color-rendering:auto;image-rendering:auto;shape-rendering:auto;text-rendering:auto;enable-background:accumulate;stop-color:#000000;stop-opacity:1"
         d="m 66.065828,8.0044842 c 0,0 13.05003,2.2015588 15.34906,5.1821998 v 0 C 78.056578,12.160889 66.065828,8.0044842 66.065828,8.0044842 Z"
         id="path913-6-6"
         sodipodi:nodetypes="cccc" />
    </g>
    <g
       id="rect906-9-5"
       transform="rotate(80.073931,87.596728,43.773186)">
      <path
         style="color:#000000;font-style:normal;font-variant:normal;font-weight:normal;font-stretch:normal;font-size:medium;line-height:normal;font-family:sans-serif;font-variant-ligatures:normal;font-variant-position:normal;font-variant-caps:normal;font-variant-numeric:normal;font-variant-alternates:normal;font-variant-east-asian:normal;font-feature-settings:normal;font-variation-settings:normal;text-indent:0;text-align:start;text-decoration:none;text-decoration-line:none;text-decoration-style:solid;text-decoration-color:#000000;letter-spacing:normal;word-spacing:normal;text-transform:none;writing-mode:lr-tb;direction:ltr;text-orientation:mixed;dominant-baseline:auto;baseline-shift:baseline;text-anchor:start;white-space:normal;shape-padding:0;shape-margin:0;inline-size:0;clip-rule:nonzero;display:inline;overflow:visible;visibility:visible;isolation:auto;mix-blend-mode:normal;color-interpolation:sRGB;color-interpolation-filters:linearRGB;solid-color:#000000;solid-opacity:1;vector-effect:none;fill:#000000;fill-opacity:1;fill-rule:evenodd;stroke:none;stroke-width:0.405031;stroke-linecap:round;stroke-linejoin:round;stroke-miterlimit:4;stroke-dasharray:none;stroke-dashoffset:0;stroke-opacity:1;paint-order:stroke fill markers;color-rendering:auto;image-rendering:auto;shape-rendering:auto;text-rendering:auto;enable-background:accumulate;stop-color:#000000;stop-opacity:1"
         d="m 66.065828,8.0044842 c 0,0 13.05003,2.2015588 15.34906,5.1821998 v 0 C 78.056578,12.160889 66.065828,8.0044842 66.065828,8.0044842 Z"
         id="path913-6-1"
         sodipodi:nodetypes="cccc" />
    </g>
    <g
       id="rect906-9-9"
       transform="rotate(90.015162,88.505124,42.336424)">
      <path
         style="color:#000000;font-style:normal;font-variant:normal;font-weight:normal;font-stretch:normal;font-size:medium;line-height:normal;font-family:sans-serif;font-variant-ligatures:normal;font-variant-position:normal;font-variant-caps:normal;font-variant-numeric:normal;font-variant-alternates:normal;font-variant-east-asian:normal;font-feature-settings:normal;font-variation-settings:normal;text-indent:0;text-align:start;text-decoration:none;text-decoration-line:none;text-decoration-style:solid;text-decoration-color:#000000;letter-spacing:normal;word-spacing:normal;text-transform:none;writing-mode:lr-tb;direction:ltr;text-orientation:mixed;dominant-baseline:auto;baseline-shift:baseline;text-anchor:start;white-space:normal;shape-padding:0;shape-margin:0;inline-size:0;clip-rule:nonzero;display:inline;overflow:visible;visibility:visible;isolation:auto;mix-blend-mode:normal;color-interpolation:sRGB;color-interpolation-filters:linearRGB;solid-color:#000000;solid-opacity:1;vector-effect:none;fill:#000000;fill-opacity:1;fill-rule:evenodd;stroke:none;stroke-width:0.405031;stroke-linecap:round;stroke-linejoin:round;stroke-miterlimit:4;stroke-dasharray:none;stroke-dashoffset:0;stroke-opacity:1;paint-order:stroke fill markers;color-rendering:auto;image-rendering:auto;shape-rendering:auto;text-rendering:auto;enable-background:accumulate;stop-color:#000000;stop-opacity:1"
         d="m 66.065828,8.0044842 c 0,0 13.05003,2.2015588 15.34906,5.1821998 v 0 C 78.056578,12.160889 66.065828,8.0044842 66.065828,8.0044842 Z"
         id="path913-6-9"
         sodipodi:nodetypes="cccc" />
    </g>
  </g>
  <rect
     style="fill:#ffff00;fill-opacity:1;stroke:#000000;stroke-width:0.9;stroke-miterlimit:4;stroke-dasharray:none;stroke-opacity:1;paint-order:stroke fill markers"
     id="rect43"
     width="40.30431"
     height="84.209862"
     x="57.305317"
     y="34.528477"
     rx="20.152155"
     inkscape:label="corpo" />
  <rect
     style="fill:#ffff00;fill-opacity:0.0147602;stroke:#000000;stroke-width:0.9;stroke-miterlimit:4;stroke-dasharray:none;stroke-opacity:1;paint-order:stroke fill markers"
     id="rect1018"
     width="40.30431"
     height="84.209862"
     x="57.305317"
     y="34.528481"
     rx="20.152155"
     inkscape:label="corpo" />
  <path
     style="fill:#0c0c0c;fill-opacity:1;stroke:#02061d;stroke-width:0;stroke-miterlimit:4;stroke-dasharray:none;stroke-opacity:1;paint-order:stroke fill markers"
     d="m 90.72038,125.66605 c 19.14991,9.34869 -9.539973,7.95235 -9.136141,0.45597"
     id="path1105"
     sodipodi:nodetypes="cc"
     inkscape:label="sapato1" />
  <path
     style="fill:#0c0c0c;fill-opacity:1;stroke:#02061d;stroke-width:0;stroke-miterlimit:4;stroke-dasharray:none;stroke-opacity:1;paint-order:stroke fill markers"
     d="m 64.628248,125.69618 c -19.149915,9.34869 10.311967,7.60145 9.908135,0.10507"
     id="path1089"
     sodipodi:nodetypes="cc"
     inkscape:label="sapato 2" />
  <path
     style="fill:#07a2eb;fill-opacity:1;stroke:#02061d;stroke-width:1.10266;stroke-miterlimit:4;stroke-dasharray:none;stroke-opacity:1;paint-order:stroke fill markers"
     d="m 60.79479,110.18907 c 5.62846,7.0163 13.665452,8.49081 13.665452,8.49081 0,0 1.8e-5,7.2247 -0.427483,7.2247 -0.427479,0 -9.404511,-0.2084 -9.404511,-0.2084 z"
     id="path1077"
     sodipodi:nodetypes="ccscc"
     inkscape:label="perna 2" />
  <path
     style="fill:#07a2eb;fill-opacity:1;stroke:#02061d;stroke-width:1.03985;stroke-miterlimit:4;stroke-dasharray:none;stroke-opacity:1;paint-order:stroke fill markers"
     d="m 93.241439,111.20314 c -5.241145,6.70071 -12.27357,7.89489 -12.27357,7.89489 0,0 0.597075,6.76705 0.995158,6.76705 0.398064,0 8.757353,-0.19903 8.757353,-0.19903 z"
     id="path1079"
     sodipodi:nodetypes="ccscc"
     inkscape:label="perna 1" />
  <path
     style="fill:#ffff00;fill-opacity:1;stroke:#02061d;stroke-width:1.3;stroke-miterlimit:4;stroke-dasharray:none;stroke-opacity:1;paint-order:stroke fill markers"
     d="m 97.712363,86.728581 c 9.145977,5.352331 5.635067,6.682926 -0.07797,14.211009 l 0.484603,-3.77344 c 3.034104,-4.207198 4.347074,-4.330052 -0.24522,-6.758182"
     id="path1111-0"
     sodipodi:nodetypes="cccc"
     inkscape:label="braço 1" />
  <path
     style="fill:#ffff00;fill-opacity:1;stroke:#02061d;stroke-width:1.3;stroke-miterlimit:4;stroke-dasharray:none;stroke-opacity:1;paint-order:stroke fill markers"
     d="m 57.081403,86.112074 c -9.265244,5.143115 -5.78548,6.553148 -0.244985,14.209106 l -0.39873,-3.783473 c -2.937715,-4.275058 -4.247558,-4.427717 0.39873,-6.750864"
     id="path1111"
     sodipodi:nodetypes="cccc"
     inkscape:label="braço 2" />
  <path
     style="fill:#ffff00;fill-opacity:0;stroke:#000000;stroke-width:0.394247;stroke-miterlimit:4;stroke-dasharray:none;stroke-opacity:1;paint-order:stroke fill markers"
     d="m 72.700658,92.325326 h 9.0489 c 0.0215,9.712734 -9.39713,9.634104 -9.0489,0 z"
     id="path1044"
     sodipodi:nodetypes="ccc"
     inkscape:label="bolsinho" />
  <path
     style="fill:#0c0c0c;fill-opacity:1;stroke:#02061d;stroke-width:0;stroke-miterlimit:4;stroke-dasharray:none;stroke-opacity:1;paint-order:stroke fill markers"
     d="m 92.298111,95.227945 c 0.183562,7.665575 3.368361,13.545205 3.368361,13.545205"
     id="path1107"
     sodipodi:nodetypes="cc"
     inkscape:label="roupa 2" />
  <g
     id="g1038"
     inkscape:groupmode="layer">
    <g
       id="g888"
       transform="translate(-64.050124,-1.8337459)"
       style="display:inline"
       inkscape:label="armação oculos">
      <ellipse
         style="display:inline;fill:#000000;fill-opacity:1;stroke:#000000;stroke-width:0.63356;stroke-miterlimit:4;stroke-dasharray:none;stroke-opacity:1;paint-order:stroke fill markers"
         id="path882"
         cx="141.34232"
         cy="58.373253"
         rx="10.975936"
         ry="11.132718"
         inkscape:label="oculos" />
      <ellipse
         style="display:inline;fill:#ffffff;fill-opacity:1;stroke:#000000;stroke-width:0.935256;stroke-miterlimit:4;stroke-dasharray:none;stroke-opacity:1;paint-order:stroke fill markers"
         id="path884"
         cx="141.51865"
         cy="58.221432"
         rx="8.1615095"
         ry="8.2997189"
         inkscape:label="olho" />
    </g>
    <ellipse
       style="display:inline;fill:#000000;fill-opacity:1;stroke:#000000;stroke-width:0;stroke-miterlimit:4;stroke-dasharray:none;stroke-opacity:1;paint-order:stroke fill markers"
       id="path912"
       cx="77.410263"
       cy="56.060226"
       rx="3.3526034"
       ry="3.4835851"
       inkscape:label="pupila" />
    <rect
       style="fill:#000000;fill-rule:evenodd;stroke:#000000;stroke-width:0.645789;stroke-linecap:round;stroke-linejoin:round;stroke-opacity:1;paint-order:stroke fill markers"
       id="rect59"
       width="10.611381"
       height="3.2290404"
       x="57.361336"
       y="54.652229"
       ry="0"
       inkscape:label="faixa" />
    <g
       id="g988"
       transform="matrix(1.5150304,0,0,1.5066862,-69.056252,-184.6649)"
       style="display:inline;stroke:#000000;stroke-width:0;stroke-miterlimit:4;stroke-dasharray:none;stroke-opacity:1"
       inkscape:label="macacão">
      <rect
         style="fill:#04a1ee;fill-opacity:1;stroke:#030300;stroke-width:0.860441;stroke-miterlimit:4;stroke-dasharray:none;stroke-opacity:1;paint-order:stroke fill markers"
         id="rect974"
         width="19.994081"
         height="20.445076"
         x="86.515747"
         y="179.57091"
         rx="3.9180293"
         inkscape:label="meio" />
      <rect
         style="fill:#009ee8;fill-opacity:1;stroke:#000000;stroke-width:0;stroke-miterlimit:4;stroke-dasharray:none;stroke-opacity:1;paint-order:stroke fill markers"
         id="rect952"
         width="6.7484779"
         height="2.3577135"
         x="170.61014"
         y="107.03505"
         rx="3.374239"
         ry="0"
         transform="matrix(0.85282839,0.52219128,-0.57799576,0.81603977,0,0)"
         inkscape:label="alça2" />
      <rect
         style="fill:#06a0ed;fill-opacity:1;stroke:#000000;stroke-width:0;stroke-miterlimit:4;stroke-dasharray:none;stroke-opacity:1;paint-order:stroke fill markers"
         id="rect952-2"
         width="7.7865524"
         height="1.9410207"
         x="-46.391712"
         y="211.90488"
         rx="3.6500301"
         ry="0"
         transform="matrix(0.85472844,-0.51907542,0.67468034,0.73811005,0,0)"
         inkscape:label="alça1"
         sodipodi:insensitive="true" />
      <path
         style="fill:#04a1ee;fill-opacity:1;stroke:#000000;stroke-width:0;stroke-miterlimit:4;stroke-dasharray:none;stroke-opacity:1;paint-order:stroke fill markers"
         d="m 82.832622,186.63648 c -1.016618,2.7649 4.062477,12.64674 5.261601,12.10168 L 86.666074,187.2378"
         id="path976"
         sodipodi:nodetypes="ccc"
         inkscape:label="lateral2" />
      <path
         style="fill:#04a1ee;fill-opacity:1;stroke:#000000;stroke-width:0;stroke-miterlimit:4;stroke-dasharray:none;stroke-opacity:1;paint-order:stroke fill markers"
         d="m 110.38052,187.08747 c 1.0487,2.90088 -4.27238,12.59714 -5.5503,12.02527 l 1.42962,-11.39438"
         id="path978"
         sodipodi:nodetypes="ccc"
         inkscape:label="lateral1" />
      <ellipse
         style="fill:#03a1ee;fill-opacity:1;stroke:#000000;stroke-width:0;stroke-miterlimit:4;stroke-dasharray:none;stroke-opacity:1;paint-order:stroke fill markers"
         id="path980"
         cx="96.851028"
         cy="197.15968"
         rx="9.5084629"
         ry="4.4347773"
         inkscape:label="partebaixo" />
      <ellipse
         style="fill:#000000;fill-opacity:1;stroke:#030300;stroke-width:0;stroke-miterlimit:4;stroke-dasharray:none;stroke-opacity:1;paint-order:stroke fill markers"
         id="ellipse1059"
         cx="105.28405"
         cy="180.31813"
         rx="0.72229493"
         ry="0.68823433"
         inkscape:label="botão 1" />
      <ellipse
         style="fill:#000000;fill-opacity:1;stroke:#030300;stroke-width:0;stroke-miterlimit:4;stroke-dasharray:none;stroke-opacity:1;paint-order:stroke fill markers"
         id="path1073"
         inkscape:label="botão 2"
         ry="0.73650318"
         rx="0.77434427"
         cy="180.65987"
         cx="88.118744" />
      <path
         style="fill:#07a2eb;fill-opacity:1;fill-rule:evenodd;stroke:none;stroke-width:0.463315;stroke-linecap:round;stroke-linejoin:round;stroke-miterlimit:4;stroke-dasharray:none;stroke-opacity:1;paint-order:stroke fill markers"
         id="path1112"
         d="m 90.408588,199.99179 c -0.186501,-0.0921 -0.328005,-0.24325 -0.471939,-0.38928 -0.128838,-0.12747 -0.265654,-0.24754 -0.405283,-0.36299 -0.120871,-0.12379 -0.278418,-0.21047 -0.429924,-0.29 -0.05273,-0.0277 -0.08115,-0.033 -0.05411,-0.0275 -0.02205,-0.011 -0.0441,-0.022 -0.06615,-0.033 0,0 -1.112921,2.35042 -1.112921,2.35042 v 0 c 0.0034,0.001 0.0068,0.002 0.01018,0.004 0.02806,0.0138 0.05593,0.028 0.08419,0.0413 0.0077,0.004 0.03061,0.0147 0.02368,0.01 -0.02214,-0.016 -0.04721,-0.0275 -0.06972,-0.0429 -0.03338,-0.0229 -0.174785,-0.15185 0.0098,0.005 0.106945,0.0781 0.201615,0.17073 0.305112,0.25292 0.174785,0.13479 0.350797,0.28714 0.506493,0.44361 0.02068,0.0208 0.03903,0.0438 0.05855,0.0657 0,0 1.612031,-2.0262 1.612031,-2.0262 z" />
      <path
         style="fill:#07a2eb;fill-opacity:1;fill-rule:evenodd;stroke:none;stroke-width:0.463315;stroke-linecap:round;stroke-linejoin:round;stroke-miterlimit:4;stroke-dasharray:none;stroke-opacity:1;paint-order:stroke fill markers"
         id="path1114"
         d="m 90.874488,199.84044 c 1.55e-4,0.002 0.0025,0.007 5.24e-4,0.006 -0.08668,-0.0256 -0.167255,-0.0719 -0.248214,-0.11094 -0.138194,-0.0628 -0.280951,-0.11445 -0.423212,-0.16717 -0.01953,-0.008 -0.03906,-0.0168 -0.05859,-0.0253 0,0 -0.990957,2.36939 -0.990957,2.36939 v 0 c 0.03409,0.0143 0.06818,0.0285 0.102275,0.0428 0.104948,0.0479 0.206114,0.10395 0.312587,0.14789 0.134763,0.0518 0.265047,0.11602 0.395007,0.17877 0,0 0.910642,-2.44183 0.910642,-2.44183 z" />
      <path
         style="fill:#07a2eb;fill-opacity:1;fill-rule:evenodd;stroke:none;stroke-width:0.463315;stroke-linecap:round;stroke-linejoin:round;stroke-miterlimit:4;stroke-dasharray:none;stroke-opacity:1;paint-order:stroke fill markers"
         id="path1116"
         d="m 89.930898,199.79532 c -0.02116,-0.009 -0.04349,-0.016 -0.06348,-0.0275 -0.08332,-0.048 -0.156014,-0.11607 -0.228987,-0.17795 -0.110303,-0.0935 -0.06504,-0.0499 -0.136946,-0.1236 -0.01989,-0.0576 -0.102557,-0.0677 -0.128791,-0.12044 -0.03093,-0.0622 0.102759,0.11353 0.05567,0.0524 -0.02643,-0.045 -0.04495,-0.0711 -0.06283,-0.11764 -0.0031,-0.008 -0.01418,-0.0221 -0.0061,-0.0253 0.0082,-0.003 0.011,0.014 0.01595,0.0214 0.01979,0.0296 0.01661,0.0298 0.03106,0.0695 0.04542,0.12203 0.02112,0.29313 -0.01341,0.40946 -0.01224,0.0355 -0.02901,0.069 -0.04393,0.10332 -0.0027,0.006 0.0059,-0.0119 0.0091,-0.0178 0.0091,-0.0172 0.02073,-0.0332 0.02774,-0.0514 0.0052,-0.0136 -0.01491,0.025 -0.02237,0.0374 -0.0255,0.034 0.0048,-0.007 0.0049,-0.003 3.49e-4,0.008 -0.02179,0.0221 -0.01366,0.0207 0.0097,-0.002 0.01278,-0.0151 0.02007,-0.0218 0.01771,-0.0161 -0.03461,0.0332 -0.05278,0.0488 0.571169,0.0791 -0.539912,0.15273 -0.398588,0.14649 0.04825,-0.002 0.09595,-0.0121 0.144199,-0.0142 0.196076,-0.008 0.38862,0.006 0.582503,0.0326 0.04504,0.008 0.09033,0.0145 0.135104,0.0238 0.0267,0.006 0.05388,0.0104 0.07917,0.0206 0.0039,0.002 -0.0063,0.008 -0.01044,0.007 -0.05155,-0.0104 -0.102503,-0.0241 -0.152636,-0.04 -0.01886,-0.006 -0.03496,-0.0321 -0.05364,-0.0256 -0.01455,0.005 0.02175,0.022 0.03263,0.0329 0.0038,0.007 0.0066,0.0152 0.01135,0.022 0.01051,0.015 0.0234,0.0282 0.03422,0.0429 0.0014,0.002 -0.0065,-0.006 -0.0056,-0.004 0.0061,0.0155 0.01566,0.0294 0.02189,0.0448 0.03267,0.0809 0.03365,0.0958 0.05623,0.18139 0.01397,0.0549 0.01614,0.11025 0.01519,0.16635 0,0 2.499314,-0.48737 2.499314,-0.48737 v 0 c -0.04523,-0.1825 -0.09192,-0.3649 -0.162423,-0.53967 -0.145779,-0.35877 -0.294999,-0.71371 -0.528096,-1.0262 -0.09593,-0.1286 -0.22094,-0.23671 -0.336322,-0.34597 -0.150542,-0.12111 -0.311311,-0.25981 -0.482819,-0.34795 -0.323877,-0.16644 -0.639627,-0.22487 -0.996507,-0.21389 -0.239476,-0.003 -0.477477,-0.007 -0.71661,-0.0216 -0.243299,-0.0145 -0.501888,-0.0455 -0.742598,0.011 -0.158222,0.0371 -0.301043,0.12303 -0.451564,0.18455 -0.05599,0.0409 -0.113444,0.0799 -0.167973,0.12283 -0.180039,0.14162 -0.332731,0.3145 -0.471833,0.49584 -0.133155,0.19847 -0.261695,0.40062 -0.334498,0.63106 -0.103447,0.33293 -0.09873,0.61466 -0.02614,0.94645 0.0146,0.0556 0.02681,0.11186 0.04382,0.16674 0.07388,0.23826 0.198961,0.45357 0.328795,0.66448 0.151696,0.24869 0.314975,0.49637 0.564866,0.65634 0.186963,0.15042 0.380985,0.29555 0.544475,0.47222 0,0 1.553442,-2.08272 1.553442,-2.08272 z" />
      <path
         style="fill:#07a2eb;fill-opacity:1;fill-rule:evenodd;stroke:none;stroke-width:0.463315;stroke-linecap:round;stroke-linejoin:round;stroke-miterlimit:4;stroke-dasharray:none;stroke-opacity:1;paint-order:stroke fill markers"
         id="path1118"
         d="m 89.599477,198.9493 c -0.12752,-0.11205 -0.223971,-0.25146 -0.316675,-0.39234 0.0068,0.007 0.02371,0.0314 0.0203,0.022 -0.008,-0.0221 -0.02388,-0.0405 -0.0346,-0.0615 -0.04278,-0.0835 -0.08181,-0.16847 -0.126522,-0.25121 0.0066,3.5e-4 0.01946,0.0293 0.01642,0.0209 -0.02768,-0.0757 -0.04372,-0.0986 -0.07689,-0.1685 -0.0021,-0.004 -0.0067,-0.018 -0.005,-0.0136 0.01528,0.0383 0.03032,0.0767 0.04547,0.11509 -0.005,-0.0153 -0.0098,-0.0306 -0.01493,-0.0458 -0.0153,-0.0454 -0.03071,-0.0908 -0.04636,-0.13603 -0.0071,-0.0204 -0.01507,-0.0405 -0.02176,-0.061 -0.0012,-0.004 -0.0035,-0.0155 -0.002,-0.0118 0.01732,0.0423 0.01946,0.0579 0.03066,0.10274 0.0105,0.0606 0.0093,-0.0233 0.0095,-0.0365 8e-6,-0.0807 -0.0031,-0.16116 -0.002,-0.24195 -5.24e-4,0.0216 -0.0016,0.0431 -0.0017,0.0647 -9e-6,0.002 8.73e-4,-0.003 0.0014,-0.004 0.0019,-0.0126 0.007,-0.0505 0.0055,-0.0378 -0.01511,0.12841 -0.0016,0.0397 0.0081,7e-4 -0.05929,0.174 -0.03765,0.13406 -0.09792,0.25425 -0.0047,0.009 -0.02283,0.0347 -0.01514,0.0276 0.02129,-0.0197 0.05029,-0.0696 0.0708,-0.094 0.02593,-0.0359 0.05187,-0.0718 0.0778,-0.10763 0,0 -2.042532,-1.55213 -2.042532,-1.55213 v 0 c -0.007,0.008 -0.0139,0.0157 -0.02085,0.0236 -0.20987,0.26051 -0.40478,0.52976 -0.495106,0.85971 -0.03696,0.18474 -0.07552,0.36897 -0.07671,0.55861 8.73e-4,0.0931 -0.0045,0.18585 -0.0027,0.27891 0.0041,0.16532 0.01434,0.33073 0.04375,0.49372 0.02661,0.12591 0.05488,0.24664 0.10329,0.3661 0.0047,0.0115 0.0033,0.0306 0.01514,0.034 0.01036,0.003 -0.01057,-0.042 -0.0071,-0.0317 0.0076,0.0227 0.01308,0.046 0.01962,0.0691 0.02639,0.0745 0.05059,0.14982 0.07915,0.22351 0.01168,0.0301 0.02205,0.0625 0.04334,0.0868 8.73e-4,8.8e-4 0.003,-0.002 0.0036,-0.001 0.168121,0.34164 -0.05099,-0.0824 0.117657,0.24031 0.105411,0.16359 0.181595,0.34564 0.296371,0.50367 0.07119,0.0947 0.141186,0.19012 0.213996,0.28358 0.04911,0.063 0.0914,0.11386 0.13625,0.18117 0.01252,0.0188 0.02225,0.0393 0.03338,0.0589 0,0 2.015037,-1.62095 2.015037,-1.62095 z" />
      <path
         style="fill:#07a2eb;fill-opacity:1;fill-rule:evenodd;stroke:none;stroke-width:0.463315;stroke-linecap:round;stroke-linejoin:round;stroke-miterlimit:4;stroke-dasharray:none;stroke-opacity:1;paint-order:stroke fill markers"
         id="path1124"
         d="m 88.971376,196.79179 c -0.01556,-0.17416 -0.02334,-0.34917 -0.03432,-0.5238 -0.0019,-0.12703 -0.005,-0.25278 -0.01352,-0.37967 -0.280308,-0.88516 -0.01264,-0.40048 -1.178296,-1.1672 0,0 -0.267632,2.60841 -0.267632,2.60841 v 0 c -1.120577,-0.7573 -0.875384,-0.28577 -1.125236,-1.12604 -5.24e-4,-0.029 -0.0031,-0.0581 -0.0016,-0.0871 10e-4,-0.02 0.0019,0.0399 0.003,0.0599 0.0053,0.0977 0.01071,0.19546 0.0204,0.29282 0.0097,0.10881 0.02971,0.21413 0.008,0.32272 0,0 2.58907,0 2.58907,0 z" />
      <path
         style="fill:#07a2eb;fill-opacity:1;fill-rule:evenodd;stroke:none;stroke-width:0.463315;stroke-linecap:round;stroke-linejoin:round;stroke-miterlimit:4;stroke-dasharray:none;stroke-opacity:1;paint-order:stroke fill markers"
         id="path1152"
         d="m 86.242881,197.00335 c 0.01083,0.003 0.02155,0.007 0.03249,0.0103 0.0014,3.5e-4 -0.0025,-0.001 -0.0038,-0.002 -0.02528,-0.0174 -0.05138,-0.0337 -0.07571,-0.0525 -0.09556,-0.0737 -0.14132,-0.14603 -0.207236,-0.24795 -0.04937,-0.11169 -0.04859,-0.0982 -0.07663,-0.19271 -0.0039,-0.0133 -0.0114,-0.0542 -0.01032,-0.0404 0.0099,0.12631 0.0501,0.25008 0.08812,0.3701 0.0296,0.0681 0.04885,0.14175 0.08879,0.20428 0.198189,0.31027 0.398497,0.54989 0.778152,0.66472 0.215712,0.0652 0.449024,0.0527 0.674197,0.0464 0.08946,-0.002 0.169324,-0.0666 0.25863,-0.0725 0.08313,-0.005 -0.159788,0.0475 -0.239684,0.0712 -0.510462,-0.41156 -1.020925,-0.82312 -1.531388,-1.23468 0,0 2.608326,-0.0914 2.608326,-0.0914 v 0 c -0.510774,-0.42049 -1.021546,-0.84098 -1.532318,-1.26147 -0.0856,0.0248 -0.176671,0.0352 -0.256811,0.0743 -0.07135,0.0348 0.150701,-0.0606 0.23001,-0.0612 0.210588,-0.002 0.428796,-0.01 0.629446,0.0546 0.344639,0.11044 0.507968,0.31954 0.681493,0.60143 0.02712,0.0441 0.03841,0.0962 0.05761,0.14427 0.0076,0.0417 0.01654,0.0832 0.02392,0.12498 3.49e-4,0.002 -0.0024,-0.004 -0.0028,-0.006 -0.0089,-0.0476 -0.0146,-0.0957 -0.02505,-0.14297 -0.04424,-0.19998 -0.0539,-0.19846 -0.135088,-0.40857 -0.04306,-0.0745 -0.08136,-0.15198 -0.12919,-0.22348 -0.170327,-0.25459 -0.417168,-0.43712 -0.668242,-0.6035 0,0 -1.256923,2.27499 -1.256923,2.27499 z" />
      <path
         style="fill:#07a2eb;fill-opacity:1;fill-rule:evenodd;stroke:none;stroke-width:0.463315;stroke-linecap:round;stroke-linejoin:round;stroke-miterlimit:4;stroke-dasharray:none;stroke-opacity:1;paint-order:stroke fill markers"
         id="path1158"
         d="m 86.312029,195.56899 c 0.01874,0.19451 0.01497,0.39176 0.05731,0.5838 0.01408,0.0639 0.03224,0.12673 0.04836,0.19009 0.07429,0.23535 0.195782,0.42145 0.360551,0.60162 0.02827,0.0309 0.115125,0.12139 0.08924,0.0884 -0.05984,-0.0762 -0.11906,-0.15286 -0.178589,-0.22929 -0.03681,-0.0851 -0.08406,-0.16635 -0.110438,-0.25527 -0.106752,-0.35992 -0.01924,-0.75351 0.219755,-1.03896 -0.113206,0.0902 -0.228863,0.23913 -0.322095,0.35294 -0.185989,0.27235 -0.275008,0.58311 -0.300032,0.90874 -0.01577,0.22455 0.01887,0.44746 0.06641,0.66607 0.0351,0.12292 0.05807,0.2525 0.110756,0.36841 0.03901,0.0858 0.08749,0.167 0.13123,0.2505 0.01362,0.0204 0.02723,0.0407 0.04084,0.061 0,0 2.129186,-1.49841 2.129186,-1.49841 v 0 c 0.0027,0.005 0.0054,0.009 0.0081,0.014 0.135859,0.27577 0.06635,0.10796 0.127331,0.29401 0.02318,0.0707 -0.03263,-0.10889 -0.03179,-0.10199 0.0023,0.0185 0.01132,0.0359 0.01277,0.0544 0.0012,0.0167 -0.0082,-0.0325 -0.01231,-0.0487 -0.01277,-0.0217 -0.01675,-0.03 0.0045,0.0603 0.0042,0.0177 -0.0033,-0.0361 -0.0048,-0.0542 -1.75e-4,-0.002 8.73e-4,0.005 8.73e-4,0.007 1.75e-4,0.0369 -1.75e-4,0.0739 -3.49e-4,0.11086 -1.14e-4,-7e-4 -1.75e-4,-0.001 -3.5e-4,-0.002 -0.01514,0.15193 -0.08721,0.29131 -0.172925,0.41473 -0.0411,0.0467 -0.08407,0.0918 -0.123301,0.14004 -0.01832,0.0226 0.04161,-0.0406 0.06048,-0.0627 0.0068,-0.008 -0.03134,0.0277 -0.02412,0.0201 0.05406,-0.0569 0.119179,-0.10319 0.170542,-0.16294 0.199708,-0.22062 0.328819,-0.40715 0.410532,-0.7103 0.06048,-0.22438 0.05381,-0.49045 -0.0041,-0.71427 -0.0312,-0.12054 -0.09008,-0.23206 -0.135125,-0.34808 -0.07555,-0.10505 -0.147824,-0.21257 -0.226664,-0.31514 -0.01921,-0.025 -0.04444,-0.0446 -0.06687,-0.0668 -0.0064,-0.006 0.0131,0.0125 0.01885,0.0194 0.02675,0.0323 0.05596,0.0629 0.07859,0.0982 0.08885,0.13865 0.08589,0.15121 0.133628,0.2876 0.0059,0.0311 0.01301,0.0621 0.01763,0.0934 1.74e-4,0.001 -0.0038,-10e-4 -0.0038,1.8e-4 -0.0012,0.0184 -0.001,0.0738 -5.24e-4,0.0553 0.0021,-0.0807 8.73e-4,-0.0553 0.0098,-0.13203 0,0 -2.589069,0 -2.589069,0 z" />
      <path
         style="fill:#07a2eb;fill-opacity:1;fill-rule:evenodd;stroke:none;stroke-width:0.463315;stroke-linecap:round;stroke-linejoin:round;stroke-miterlimit:4;stroke-dasharray:none;stroke-opacity:1;paint-order:stroke fill markers"
         id="path1160"
         d="m 85.934829,196.08889 c 0.0029,0.002 0.0068,0.004 0.0086,0.007 0.0072,0.0132 0.01174,0.0422 0.0139,0.0551 0.01142,0.0682 0.01936,0.13704 0.03354,0.20471 0.0098,0.0466 0.02165,0.0927 0.03247,0.13913 0.100958,0.29784 0.02987,0.10443 0.108213,0.29551 0.0022,0.005 0.0083,0.0212 0.0054,0.0163 -0.0287,-0.0479 -0.04167,-0.10569 -0.05641,-0.15881 -0.0038,-0.0225 -0.01708,-0.0895 -0.01154,-0.0674 0.01995,0.0797 0.02993,0.16198 0.05482,0.24023 0.05279,0.16596 0.08073,0.21152 0.146485,0.3355 0,0 2.264327,-1.26772 2.264327,-1.26772 v 0 c 0.0292,0.066 0.04818,0.10784 0.07355,0.19644 0.02071,0.0723 0.0575,0.3347 0.01051,0.0189 -0.03403,-0.13951 -0.06871,-0.28856 -0.141707,-0.41416 -0.0028,-0.005 0.0025,0.0108 0.0037,0.0161 0.01027,0.0366 0.02055,0.0733 0.03083,0.10993 8.74e-4,0.009 0.0073,0.0367 0.0026,0.0284 -0.0075,-0.0132 -0.0071,-0.0295 -0.01142,-0.044 -0.03281,-0.10973 -0.02425,-0.23229 -0.05084,-0.34419 0,0 -2.516957,0.63272 -2.516957,0.63272 z" />
      <path
         style="fill:#07a2eb;fill-opacity:1;fill-rule:evenodd;stroke:none;stroke-width:0.463315;stroke-linecap:round;stroke-linejoin:round;stroke-miterlimit:4;stroke-dasharray:none;stroke-opacity:1;paint-order:stroke fill markers"
         id="path1162"
         d="m 104.5044,202.071 c 0.0259,-0.0352 0.0516,-0.0706 0.0778,-0.10563 0.0438,-0.0586 0.0912,-0.11452 0.13228,-0.17509 0.13526,-0.19967 0.2464,-0.41715 0.36268,-0.62836 0.0889,-0.16241 0.17703,-0.32565 0.25831,-0.49213 0.0621,-0.12725 0.0251,-0.0633 0.0621,-0.12537 0.0769,-0.11225 0.11586,-0.24793 0.16991,-0.37237 0.003,-0.007 0.0127,-0.0267 0.0109,-0.0195 -0.005,0.0191 -0.0133,0.0371 -0.02,0.0556 -0.007,0.0349 0.0234,-0.0518 0.0474,-0.0689 0.0188,-0.0134 -0.0349,0.037 -0.0345,0.0602 3.4e-4,0.0218 0.0242,-0.0362 0.0378,-0.0533 0.0828,-0.13317 0.13972,-0.2793 0.20657,-0.4204 0.004,-0.007 0.009,-0.0136 0.0133,-0.0209 0.0115,-0.0214 0.0153,-0.0816 0.0329,-0.0649 0.0179,0.0168 -0.0204,0.0447 -0.0306,0.0671 0.0988,-0.12459 0.16675,-0.27079 0.2351,-0.41384 0.10097,-0.19762 0.12956,-0.41757 0.17623,-0.63096 0.005,-0.0286 0.01,-0.0572 0.0138,-0.0859 0.0316,-0.20809 -0.002,0.002 -0.007,0.0262 -0.004,0.0187 -0.01,0.037 -0.0161,0.055 -0.0238,0.0662 -0.0508,0.11415 -0.0156,0.0482 0.0409,-0.0719 0.0742,-0.14569 0.11054,-0.22008 0.006,-0.013 -0.0303,0.0468 -0.0176,0.0399 0.0148,-0.008 0.0172,-0.0292 0.0252,-0.044 0.0161,-0.0297 0.0315,-0.0598 0.0473,-0.0897 0.12947,-0.28383 -0.0222,0.0564 0.1034,-0.25194 0.005,-0.0134 -0.0166,0.0553 -0.012,0.0417 0.0215,-0.0627 0.0398,-0.099 0.0475,-0.15019 0.0407,-0.11211 0.0118,-0.0293 0.0625,-0.19046 0.002,-0.007 0.008,-0.028 0.007,-0.0208 -0.007,0.0434 -0.0309,0.0852 -0.0497,0.12401 0.10739,-0.16182 0.17466,-0.34402 0.23047,-0.52882 0.0301,-0.10233 0.0474,-0.20745 0.0636,-0.31265 0,0 -2.56568,-0.35626 -2.56568,-0.35626 v 0 c 0.005,-0.0223 0.0109,-0.0445 0.018,-0.0663 0.003,-0.0105 0.0142,-0.0421 0.0103,-0.0317 -0.008,0.0214 -0.0419,0.0763 -0.0224,0.0645 0.021,-0.0128 0.0182,-0.046 0.0286,-0.0683 0.008,-0.0176 0.0177,-0.0345 0.0274,-0.0513 0.003,-0.006 0.0147,-0.023 0.0119,-0.0167 -0.006,0.0135 -0.0143,0.0257 -0.0215,0.0386 -0.0247,0.0445 -0.0512,0.0881 -0.0742,0.13364 -0.0504,0.0999 -0.13396,0.32744 -0.13922,0.35399 -0.0289,0.0736 -0.0396,0.097 -0.0628,0.16928 -0.007,0.0208 0.0292,-0.0824 0.0217,-0.0619 -0.0837,0.2301 -0.0281,0.0697 0.003,0.0214 0.0208,-0.008 0.004,-0.002 -0.0225,0.0482 -0.0798,0.15427 -0.051,0.0979 -0.11156,0.22742 -0.11014,0.21411 -0.20984,0.43538 -0.23364,0.67856 -0.008,0.0514 -0.0181,0.10256 -0.0248,0.15419 -7e-4,0.005 0.004,-0.0103 0.005,-0.0154 0.0116,-0.0386 0.0207,-0.0795 0.0438,-0.11331 0.01,-0.015 0.0108,-0.0161 0.0195,-0.0335 0.0115,-0.0232 -0.01,0.0188 -0.0169,0.0293 -0.13403,0.20157 0.007,-0.0186 -0.12072,0.18299 -0.0289,0.0543 -0.0591,0.10794 -0.0868,0.16292 -0.0228,0.0453 -0.0395,0.0935 -0.0593,0.14023 -0.002,0.005 -0.009,0.0183 -0.007,0.0137 0.01,-0.021 0.0205,-0.0413 0.0308,-0.062 -0.0775,0.11175 -0.14747,0.22903 -0.20791,0.3511 -0.0243,0.052 -0.0499,0.10348 -0.0729,0.15611 -0.0226,0.0517 -0.0482,0.10325 -0.0595,0.15861 -0.002,0.008 0.007,-0.0146 0.0126,-0.0203 0.002,-0.002 -0.001,0.006 -0.002,0.009 -0.0213,0.042 -0.0426,0.084 -0.0639,0.12603 -0.0786,0.17225 -0.13468,0.3533 -0.23165,0.51723 -0.0491,0.0917 -0.0983,0.18389 -0.14977,0.27418 -10e-4,0.002 -0.0156,0.008 -10e-4,-0.006 -0.0123,0.006 -0.0247,0.0122 -0.037,0.0183 0,0 1.83097,1.84111 1.83097,1.84111 z" />
    </g>
    <rect
       style="fill:#ffff00;fill-opacity:0;stroke:#000000;stroke-width:0.336259;stroke-miterlimit:4;stroke-dasharray:none;stroke-opacity:1;paint-order:stroke fill markers"
       id="rect1020"
       width="10.899637"
       height="3.0888221"
       x="31.368362"
       y="119.63369"
       rx="6.7333617"
       ry="0"
       transform="rotate(-30.915179)"
       inkscape:label="contorno2" />
    <rect
       style="fill:#ffff00;fill-opacity:0;stroke:#000000;stroke-width:0.355282;stroke-miterlimit:4;stroke-dasharray:none;stroke-opacity:1;paint-order:stroke fill markers"
       id="rect1020-5"
       width="11.516273"
       height="3.2635686"
       x="-103.21543"
       y="38.246815"
       rx="0"
       ry="0"
       transform="matrix(-0.84793214,-0.53010479,-0.53010479,0.84793214,0,0)"
       inkscape:label="contorno" />
    <rect
       style="fill:#000000;fill-rule:evenodd;stroke:#000000;stroke-width:0.645789;stroke-linecap:round;stroke-linejoin:round;stroke-opacity:1;paint-order:stroke fill markers"
       id="rect59-6"
       width="10.611381"
       height="3.2290404"
       x="86.931"
       y="54.119469"
       ry="0"
       inkscape:label="faixa" />
    <g
       id="rect906"
       style="opacity:1"
       transform="translate(-41.769869,37.237654)"
       inkscape:label="boca">
      <path
         style="color:#000000;font-style:normal;font-variant:normal;font-weight:normal;font-stretch:normal;font-size:medium;line-height:normal;font-family:sans-serif;font-variant-ligatures:normal;font-variant-position:normal;font-variant-caps:normal;font-variant-numeric:normal;font-variant-alternates:normal;font-variant-east-asian:normal;font-feature-settings:normal;font-variation-settings:normal;text-indent:0;text-align:start;text-decoration:none;text-decoration-line:none;text-decoration-style:solid;text-decoration-color:#000000;letter-spacing:normal;word-spacing:normal;text-transform:none;writing-mode:lr-tb;direction:ltr;text-orientation:mixed;dominant-baseline:auto;baseline-shift:baseline;text-anchor:start;white-space:normal;shape-padding:0;shape-margin:0;inline-size:0;clip-rule:nonzero;display:inline;overflow:visible;visibility:visible;isolation:auto;mix-blend-mode:normal;color-interpolation:sRGB;color-interpolation-filters:linearRGB;solid-color:#000000;solid-opacity:1;vector-effect:none;fill:#000000;fill-opacity:1;fill-rule:evenodd;stroke:none;stroke-width:0.405031;stroke-linecap:round;stroke-linejoin:round;stroke-miterlimit:4;stroke-dasharray:none;stroke-dashoffset:0;stroke-opacity:1;paint-order:stroke fill markers;color-rendering:auto;image-rendering:auto;shape-rendering:auto;text-rendering:auto;enable-background:accumulate;stop-color:#000000;stop-opacity:1"
         d="m 110.65302,37.035156 c 6.66792,-3.593112 12.68255,-2.943117 18.04389,0.649985 v 0 c -2.50086,-5.435517 -13.4243,-6.137526 -18.04389,-0.649985 z"
         id="path913"
         sodipodi:nodetypes="cccc" />
    </g>
  </g>
  <rect
     style="fill:#ffff00;fill-opacity:0.0147602;stroke:#000000;stroke-width:0.9;stroke-miterlimit:4;stroke-dasharray:none;stroke-opacity:1;paint-order:stroke fill markers"
     id="rect1018-4"
     width="40.30431"
     height="84.209862"
     x="57.305313"
     y="34.528484"
     rx="20.152155"
     inkscape:label="corpo" />
</svg>
